<?xml version="1.0" encoding="UTF-8" standalone="no"?>
<!-- Created with Inkscape (http://www.inkscape.org/) -->

<svg
   xmlns:dc="http://purl.org/dc/elements/1.1/"
   xmlns:cc="http://creativecommons.org/ns#"
   xmlns:rdf="http://www.w3.org/1999/02/22-rdf-syntax-ns#"
   xmlns:svg="http://www.w3.org/2000/svg"
   xmlns="http://www.w3.org/2000/svg"
   xmlns:xlink="http://www.w3.org/1999/xlink"
   xmlns:sodipodi="http://sodipodi.sourceforge.net/DTD/sodipodi-0.dtd"
   xmlns:inkscape="http://www.inkscape.org/namespaces/inkscape"
   width="3855.7004"
   height="1099.8126"
   viewBox="0 0 3855.7004 1099.8126"
   id="svg13011"
   version="1.1"
   inkscape:version="0.91 r13725"
   sodipodi:docname="landscape.svg">
  <defs
     id="defs13013">
    <linearGradient
       inkscape:collect="always"
       id="linearGradient11080">
      <stop
         style="stop-color:#ff0000;stop-opacity:1"
         offset="0"
         id="stop11082" />
      <stop
         style="stop-color:#000080;stop-opacity:1"
         offset="1"
         id="stop11084" />
    </linearGradient>
    <clipPath
       clipPathUnits="userSpaceOnUse"
       id="clipPath11646">
      <rect
         y="553.07898"
         x="-6366.3516"
         height="1080"
         width="3840"
         id="rect11648"
         style="opacity:0.2;fill:#1a1a1a;fill-opacity:0.86605871;stroke:none" />
    </clipPath>
    <linearGradient
       id="linearGradient5625">
      <stop
         style="stop-color:#0a0a0d;stop-opacity:1;"
         offset="0"
         id="stop5627" />
      <stop
         style="stop-color:#303542;stop-opacity:1"
         offset="1"
         id="stop5629" />
    </linearGradient>
    <linearGradient
       id="linearGradient6681-6">
      <stop
         id="stop6683"
         offset="0"
         style="stop-color:#0a0a0d;stop-opacity:1;" />
      <stop
         id="stop6685"
         offset="1"
         style="stop-color:#303542;stop-opacity:0.502" />
    </linearGradient>
    <filter
       style="color-interpolation-filters:sRGB"
       id="filter6877"
       x="-0.006735364"
       width="1.0134706"
       y="-0.021871919"
       height="1.0437438">
      <feGaussianBlur
         stdDeviation="3.9711145"
         id="feGaussianBlur6879" />
    </filter>
    <filter
       style="color-interpolation-filters:sRGB"
       id="filter6881"
       x="-0.013115975"
       width="1.026232"
       y="-0.024464224"
       height="1.0489284">
      <feGaussianBlur
         stdDeviation="3.9711145"
         id="feGaussianBlur6883" />
    </filter>
    <filter
       style="color-interpolation-filters:sRGB"
       id="filter6885"
       x="-0.02595293"
       width="1.0519059"
       y="-0.067848474"
       height="1.1356969">
      <feGaussianBlur
         stdDeviation="3.9711145"
         id="feGaussianBlur6887" />
    </filter>
    <filter
       style="color-interpolation-filters:sRGB"
       id="filter6934"
       x="-0.30239999"
       width="1.6048"
       y="-0.30239999"
       height="1.6048">
      <feGaussianBlur
         stdDeviation="81.751067"
         id="feGaussianBlur6936" />
    </filter>
    <radialGradient
       inkscape:collect="always"
       xlink:href="#linearGradient11080"
       id="radialGradient11086"
       cx="2058.6619"
       cy="1838.9098"
       fx="2058.6619"
       fy="1838.9098"
       r="1927.8502"
       gradientTransform="matrix(1.4026826,-0.31439903,0.15281901,0.6817979,-2255.1516,465.03754)"
       gradientUnits="userSpaceOnUse" />
  </defs>
  <sodipodi:namedview
     id="base"
     pagecolor="#ffffff"
     bordercolor="#666666"
     borderopacity="1.0"
     inkscape:pageopacity="0.0"
     inkscape:pageshadow="2"
     inkscape:zoom="0.21435469"
     inkscape:cx="1701.2955"
     inkscape:cy="460.59031"
     inkscape:document-units="px"
     inkscape:current-layer="g6938"
     showgrid="false"
     fit-margin-top="0"
     fit-margin-left="0"
     fit-margin-right="0"
     fit-margin-bottom="0"
     inkscape:window-width="1208"
     inkscape:window-height="849"
     inkscape:window-x="391"
     inkscape:window-y="0"
     inkscape:window-maximized="0" />
  <metadata
     id="metadata13016">
    <rdf:RDF>
      <cc:Work
         rdf:about="">
        <dc:format>image/svg+xml</dc:format>
        <dc:type
           rdf:resource="http://purl.org/dc/dcmitype/StillImage" />
        <dc:title></dc:title>
      </cc:Work>
    </rdf:RDF>
  </metadata>
  <g
     inkscape:label="Ebene 1"
     inkscape:groupmode="layer"
     id="layer1"
     transform="translate(1751.4286,187.45044)">
    <rect
       style="color:#000000;clip-rule:nonzero;display:inline;overflow:visible;visibility:visible;opacity:1;isolation:auto;mix-blend-mode:normal;color-interpolation:sRGB;color-interpolation-filters:linearRGB;solid-color:#000000;solid-opacity:1;fill:url(#radialGradient11086);fill-opacity:1;fill-rule:nonzero;stroke:none;stroke-width:10;stroke-linecap:butt;stroke-linejoin:miter;stroke-miterlimit:4;stroke-dasharray:none;stroke-dashoffset:0;stroke-opacity:1;marker:none;color-rendering:auto;image-rendering:auto;shape-rendering:auto;text-rendering:auto;enable-background:accumulate"
       id="rect11070"
       width="3855.7004"
       height="1099.8126"
       x="-1751.4286"
       y="-187.45044" />
    <g
       id="g6938"
       transform="matrix(0.70016645,0,0,0.70016645,-903.38217,-171.43588)">
      <rect
         id="rect26"
         height="1561.8"
         width="2691.6599"
         x="0"
         y="0"
         style="fill:url(#SVGID_1_)" />
      <ellipse
         style="fill:#afae99;filter:url(#filter6934);fill-opacity:1"
         id="circle28"
         cy="767.52899"
         cx="1634.0699"
         r="324.409" />
      <path
         id="path30"
         d="m 1737.7011,478.61865 c -3.195,0.0238 -6.3275,0.8218 -9.3925,2.5918 -4.49,2.58 -8.5103,2.27062 -13.3203,0.89062 -10.34,-2.97 -21.0595,-3.49109 -31.6895,-1.87109 -25.63,3.88 -48.2505,14.61977 -68.2305,31.00977 -4.39,3.61 -7.9607,7.92062 -11.2207,12.64062 -7.21,10.42 -13.2186,21.53055 -19.8086,32.31055 -6.41,10.49 -9.5112,21.77914 -11.5312,33.61914 -1.9,11.12 -3.2992,22.39125 -6.1192,33.28125 -4.82,18.67 -6.9712,37.86976 -11.7812,56.50976 -0.49,1.93 -1.1594,3.85836 -1.3594,5.81836 -0.78,7.45 -0.5298,14.76125 5.1602,20.53125 3.98,4.03 5.129,9.07985 6.289,14.33985 2.39,10.81 2.5317,21.71945 2.1817,32.68945 -0.15,4.87 1.01,10.18008 -4.5,13.33008 -0.69,0.39 -1.2209,1.79039 -1.1309,2.65039 0.62,5.78 -2.7105,10.88937 -2.5605,16.60937 0.13,4.97 -0.45,9.62102 -3.25,14.29102 -2.03,3.39 -2.0992,7.97859 -5.8692,10.55859 -1.41,9.83 -8.9894,13.66063 -16.9394,16.39063 -10.73,3.69 -20.9817,8.33117 -31.1817,13.20117 -6.38,3.05 -12.0891,6.91937 -17.3691,11.60937 -10.89,9.67 -18.83,21.48954 -25.5,34.26954 -6.93,13.26 -13.7907,26.54078 -20.7207,39.80078 -0.95,1.82 -1.4188,3.67875 -1.4688,5.71875 -0.61,21.49 -6.99,41.86015 -12.33,62.4102 -0.61,2.38 -1.361,4.7408 -1.961,7.13083 -0.63,2.46 -1.119,4.9292 -1.209,7.4492 -0.32,9.43 -3.37,18.2798 -5.58,27.2598 -3.57,14.51 -8.0597,28.7905 -11.9297,43.2305 -2.84,10.58 -4.8712,21.3907 -9.4512,31.4707 -0.93,2.05 -1.2905,4.509 -1.3105,6.789 -0.04,4.49 -1.5095,8.4311 -3.4395,12.3711 -1.6,3.27 -3.1301,6.6888 -3.9101,10.2188 -1.03,4.66 -2.9386,8.7504 -5.4786,12.7304 -3.97,6.23 -6.7707,12.901 -7.3007,20.461 -0.2,2.93 -1.2707,5.8401 -2.2207,8.6601 -1.69,5.05 -3.3186,10.0597 -3.9786,15.4297 -0.72,5.91 -1.6909,11.9003 -3.4609,17.5703 -3.35,10.77 -7.5905,21.2588 -9.4805,32.4688 -0.57,3.34 -1.4504,3.6205 -4.9004,1.7305 -8.47,-4.62 -16.8885,-9.32 -25.2285,-14.17 -22.54,-13.1 -46.4608,-22.9399 -71.5508,-29.9199 -21.29,-5.92 -41.6003,-3.6805 -60.3203,8.5195 -14.98,9.76 -25.6194,23.2504 -31.9394,39.9004 -4.06,10.7 -6.0799,21.9396 -3.6699,33.3496 3.61,17.05 9.0804,33.4197 19.7304,47.5997 2.6,3.46 5.0995,7.0007 7.6895,10.4707 5.57,7.48 11.2007,14.9096 16.7207,22.4296 1.89,2.58 1.0798,4.5894 -1.9102,4.8594 -2.98,0.26 -5.9904,0.251 -8.9804,0.291 -27.33,0.37 -54.6009,-1.2506 -81.8809,-2.3906 -29.94,-1.25 -59.8684,-2.7397 -89.8185,-3.9297 -12.3099,-0.48 -93.89878,0.3999 -106.11878,-0.8301 -18.92,-1.9 -87.18885,-1.1903 -106.11885,-3.1503 -16.51,-1.71 -89.47886,-0.3391 -106.11886,-2.0391 -14.19,-1.45 -91.80885,-0.6602 -106.11885,-1.9902 -15.86,-1.48 -90.14885,-0.5899 -106.11885,-2.0899 -14.86,-1.39 -91.14885,-0.781 -106.11885,-2.041 -17.55,-1.47 -88.48886,-1.3886 -106.11886,-2.0586 -29.93,-1.13 -76.21885,-2.3609 -106.11885,-4.1309 -19.24999,-1.14 -86.82886,-1.7507 -106.11886,-2.3007 -25.3,-0.74 -80.778853,-3.1686 -106.118853,-2.5586 -1.66,0.04 -104.498847,0.01 -106.118847,-0.2813 -15.47,-2.77 -90.53885,-2.129 -106.11885,-3.039 -21.91,-1.28 -84.16885,-1.9104 -106.11885,-2.9004 -6.65,-0.29 -99.51885,0.261 -106.11885,-0.459 -22.88,-2.5 -83.21886,-0.9017 -106.11886,-3.1817 -10.25,-1.02 -95.85885,-0.2592 -106.11885,-1.1992 -14.91,-1.38 -91.19885,-1.3504 -106.11885,-2.9004 -16.51,-1.71 -89.48885,-0.2493 -106.11885,-2.1093 -11.86,-1.32 -94.2188,-1.6604 -106.1188,-1.8204 -25.65003,-0.34 -80.46883,-2.9392 -106.11883,-2.6992 -3.31,0.03 -102.8689,0.5695 -106.1189,-0.5605 l 0,225.9707 c 3.65,0.17 7.2993,0.4687 10.9493,0.4687 209.61993,0 1637.53598,0.01 1847.15598,0 0.01,0.01 0.01,0.01 0.01,0 679.63002,0.02 2958.88042,0.02 3638.50042,0 3.65,0 7.2993,-0.2987 10.9493,-0.4687 l 0,-123.9805 c -7.98,0.07 -82.1027,0.2392 -90.0927,0.1992 -8.97,-0.06 -81.1428,-0.1001 -90.0928,-1.6601 -9.14,-1.6 -80.7327,-3.3389 -90.0927,-2.5489 -18.37,1.56 -71.7928,-1.8998 -90.0928,-1.8398 -0.99,0 -89.1128,-0.2004 -90.0928,-0.4004 -10.89,-2.31 -79.3927,-2.2196 -90.0927,-0.8496 -14.16,1.81 -76.3328,-0.4405 -90.0928,4.6895 -1.2,0.45 -88.7627,0.279 -90.0927,0.289 -20.98,0.17 -69.1128,0.361 -90.0928,0.461 -10.32,0.05 -79.7827,-0.1 -90.0927,-0.1 -6.63,0 -84.0028,0.8093 -90.0928,-3.0507 -1.29,-0.82 -88.4428,-0.8197 -90.0928,-0.9297 -10.27,-0.66 -79.8127,-1.3908 -90.0927,-1.8008 -9.32,-0.37 -80.7628,-0.3795 -90.0928,-0.5195 -2.66,-0.04 -87.5527,0.05 -90.0927,-1.0996 -5.01,-2.26 -84.7128,-2.5311 -90.0928,-2.0411 -4.69,0.42 -85.6727,0.3202 -90.0927,-1.3398 -4.83,-1.81 -85.1028,-1.8487 -90.0928,-1.8887 -14.99,-0.11 -75.0928,-0.1797 -90.0928,-0.2597 -6.33,-0.04 -83.8027,-0.7806 -90.0927,-1.0606 -19.28,-0.83 -70.8128,-1.7204 -90.0928,0.5996 -10.89,1.31 -79.1427,2.5408 -90.0927,0.3008 -1.24,-0.26 -88.8028,0.03 -90.0928,0.25 -5.25,0.85 -84.8227,2.0691 -90.0927,2.6191 -11.27,1.16 -78.9528,1.9901 -90.0928,-1.4199 -3.75,-1.15 -7.53,-2.1798 -11.75,-1.5898 -4.41,0.61 -8.4914,-1.671 -11.5214,-4.711 -2.43,-2.44 -0.199,-5.7391 0.121,-8.6191 0.36,-3.29 1.1097,-6.5491 1.8497,-9.7891 4.81,-21.16 8.0102,-42.5012 8.2402,-64.2812 0.13,-12.25 -1.9297,-23.9106 -7.1797,-34.8906 -8.62,-18.05 -20.6998,-33.3784 -37.2598,-44.8184 -4.52,-3.11 -8.2714,-6.5005 -10.5214,-11.5605 -0.94,-2.1 -2.3901,-4.0199 -3.8301,-5.8399 -2.92,-3.68 -2.5689,-7.3994 -0.2989,-11.1094 1.55,-2.55 3.3486,-4.8617 3.8086,-8.0117 1.07,-7.24 2.6511,-14.4101 3.6211,-21.6601 0.69,-5.26 0.2205,-10.41 -2.2695,-15 -0.55,-1.03 -1.2007,-2.03 -1.9707,-3 -8.88,-11.22 -12.4201,-24.9199 -17.5801,-37.8399 -1.2,-3 -2.0001,-6.709 -1.4101,-9.789 2.9,-15.16 -2.8795,-30.3097 0.3105,-45.4297 0.26,-1.19 -0.4405,-2.5907 -0.7305,-3.8907 -0.63,-2.93 -1.1789,-5.8795 -1.9589,-8.7695 -1.41,-5.26 -1.65,-10.4005 0,-15.7305 1.62,-5.22 2.5095,-10.5695 2.7695,-16.0195 0.07,-1.53 0.1003,-3.0711 0.07,-4.6211 -0.06,-3.28 0.4093,-6.6796 1.2793,-9.8496 2.93,-10.65 3.7706,-21.64003 4.6406,-32.50002 1.71,-21.59 1.0696,-43.25992 0.3496,-64.91992 -0.5,-15.11 -3.1405,-29.68039 -8.3105,-43.90039 -4.61,-12.71 -12.5296,-22.54891 -23.5996,-30.12891 -10.45,-7.15 -21.2692,-13.68047 -32.3692,-19.73047 -4.07,-2.22 -7.5303,-5.34992 -12.0703,-6.91992 -10.21,-3.52 -16.6704,-10.52078 -18.1504,-21.55078 -0.26,-1.93 0.2898,-4.26969 -1.7402,-5.42969 -3.62,-2.07 -4.9298,-7.17945 -10.2598,-7.18945 -2.18,-0.01 -4.2211,-2.10961 -5.4511,-4.09961 -3.21,-5.18 -1.8288,-10.92125 -1.7188,-16.53125 0.07,-3.54 1.4106,-4.85961 4.8906,-4.09961 0.13,0.02 0.9689,-1.67977 0.8789,-2.50977 -0.21,-1.97 -0.7107,-3.91007 -1.2207,-5.83007 -1.1,-4.14 -3.1893,-8.24063 -3.2793,-12.39063 -0.33,-15.28 -1.6006,-30.42984 -3.6406,-45.58984 -1.59,-11.87 -3.2497,-23.72875 -6.4297,-35.21875 -4.73,-17.11 -7.1389,-34.5011 -8.3789,-52.1211 -0.21,-2.97 -0.5602,-6.03008 -1.4902,-8.83007 -3.79,-11.35 -7.5899,-22.69868 -11.8399,-33.88868 -4.5,-11.81 -9.5409,-23.42062 -17.2109,-33.64062 -6.01,-7.99 -13.0497,-15.1193 -19.4297,-22.7793 -9.31,-11.19 -21.4093,-17.54172 -34.5293,-22.76172 -3.315,-1.325 -6.5726,-2.07453 -9.7676,-2.05078 z m -223.5527,641.82225 c 0.75,0.1 1.779,1.1993 1.959,2.0293 0.95,4.21 1.7112,8.4493 2.4512,12.6993 0.28,1.63 0,3.4314 0.5488,4.9414 4.41,12.24 5.5099,25.2587 8.9199,37.7187 2.21,8.09 3.1306,16.3109 3.1406,24.6309 0.01,7.33 0.5694,14.6097 1.3594,20.6797 -0.75,8.75 -1.1887,16.32 -2.1387,23.83 -0.55,4.45 -0.4111,8.58 2.0489,12.42 1.9,2.97 2.0204,5.9504 1.4004,9.4804 -1.47,8.46 -1.7204,17.0404 -1.1504,25.6504 0.37,5.62 0.1211,11.2897 0.1211,16.9297 0,2.95 -1.751,4.0703 -4.461,4.0703 -1.33,0 -2.7787,0.3087 -3.9687,-0.1113 -6.14,-2.15 -12.5015,-1.4896 -18.7715,-1.5996 -13.09,-0.22 -25.7099,-2.27 -37.4199,-8.5 -1.17,-0.63 -2.4702,-0.9901 -3.6602,-1.5801 -2.91,-1.46 -7.3201,-1.2103 -8.5801,-4.3203 -1.33,-3.29 2.4611,-5.7188 4.0411,-8.4688 2.02,-3.5 3.7401,-7.0596 4.1601,-11.0996 0.59,-5.75 2.9302,-10.9416 5.4902,-15.9316 2.28,-4.44 5.1797,-8.4987 5.8497,-13.6387 0.17,-1.23 0.839,-2.7704 1.789,-3.4804 5.43,-4.04 5.9217,-9.9593 6.6817,-15.9493 0.99,-7.92 3.0094,-15.5111 6.4394,-22.8711 2.76,-5.93 4.7306,-12.2895 4.0606,-19.2695 -0.51,-5.37 1.9096,-10.4195 4.0996,-15.2695 2.91,-6.44 4.6295,-13.0017 4.5195,-20.1817 -0.16,-10.15 4.21,-19.3493 7,-28.8593 0.27,-0.92 0.9409,-1.8003 1.6309,-2.4903 0.68,-0.67 1.6894,-1.559 2.4394,-1.459 z"
         inkscape:connector-curvature="0"
         sodipodi:nodetypes="cccccccccccccccccccccccccccccccccccccccccccccccccccccccccccccccccccccccccccsccccccccccccccscccccccccccccccccccccccccccccccccccccccccccccccccccccccccccccccsccccccccccsscccccccccccccccccs" />
      <path
         id="path59"
         d="m 1525.31,1261.34 c 0.95,-7.51 1.39,-15.08 2.14,-23.83 -0.79,-6.07 -1.35,-13.35 -1.36,-20.68 -0.01,-8.32 -0.93,-16.54 -3.14,-24.63 -3.41,-12.46 -4.51,-25.48 -8.92,-37.72 -0.55,-1.51 -0.27,-3.31 -0.55,-4.94 -0.74,-4.25 -1.5,-8.49 -2.45,-12.7 -0.18,-0.83 -1.21,-1.93 -1.96,-2.03 -0.75,-0.1 -1.76,0.79 -2.44,1.46 -0.69,0.69 -1.36,1.57 -1.63,2.49 -2.79,9.51 -7.16,18.71 -7,28.86 0.11,7.18 -1.61,13.74 -4.52,20.18 -2.19,4.85 -4.61,9.9 -4.1,15.27 0.67,6.98 -1.3,13.34 -4.06,19.27 -3.43,7.36 -5.45,14.95 -6.44,22.87 -0.76,5.99 -1.25,11.91 -6.68,15.95 -0.95,0.71 -1.62,2.25 -1.79,3.48 -0.67,5.14 -3.57,9.2 -5.85,13.64 -2.56,4.99 -4.9,10.18 -5.49,15.93 -0.42,4.04 -2.14,7.6 -4.16,11.1 -1.58,2.75 -5.37,5.18 -4.04,8.47 1.26,3.11 5.67,2.86 8.58,4.32 1.19,0.59 2.49,0.95 3.66,1.58 11.71,6.23 24.33,8.28 37.42,8.5 6.27,0.11 12.63,-0.55 18.77,1.6 1.19,0.42 2.64,0.11 3.97,0.11 2.71,0 4.46,-1.12 4.46,-4.07 0,-5.64 0.25,-11.31 -0.12,-16.93 -0.57,-8.61 -0.32,-17.19 1.15,-25.65 0.62,-3.53 0.5,-6.51 -1.4,-9.48 -2.46,-3.84 -2.6,-7.97 -2.05,-12.42 z"
         inkscape:connector-curvature="0"
         style="fill:url(#SVGID_4_)" />
      <g
         id="g6889">
        <path
           d="m 2688.66,1048.45 c -124.65,28.12 -249.3,56.23 -373.95,84.34 -24.53,5.53 -49.07,11.07 -73.6,16.6 -42.16,9.51 -84.44,19.04 -127.45,23.23 -44.26,4.31 -88.99,2.93 -133.08,8.7 -2.88,0.38 -5.75,0.78 -8.61,1.22 2.49,4.59 2.96,9.74 2.27,15 -0.97,7.25 -2.55,14.42 -3.62,21.66 -0.46,3.15 -2.26,5.46 -3.81,8.01 -2.27,3.71 -2.62,7.43 0.3,11.11 1.44,1.82 2.89,3.74 3.83,5.84 2.25,5.06 6,8.45 10.52,11.56 16.56,11.44 28.64,26.77 37.26,44.82 5.25,10.98 7.31,22.64 7.18,34.89 -0.23,21.78 -3.43,43.12 -8.24,64.28 -0.74,3.24 -1.49,6.5 -1.85,9.79 -0.32,2.88 -2.55,6.18 -0.12,8.62 3.03,3.04 7.11,5.32 11.52,4.71 4.22,-0.59 8,0.44 11.75,1.59 11.14,3.41 22.41,2.58 33.68,1.42 5.27,-0.55 10.48,-1.77 15.73,-2.62 1.29,-0.22 2.67,-0.51 3.91,-0.25 10.95,2.24 21.87,1.01 32.76,-0.3 19.28,-2.32 38.6,-1.43 57.88,-0.6 6.29,0.28 12.59,1.02 18.92,1.06 15,0.08 30,0.15 44.99,0.26 4.99,0.04 9.95,0.08 14.78,1.89 4.42,1.66 9.12,1.76 13.81,1.34 5.38,-0.49 10.68,-0.22 15.69,2.04 2.54,1.15 5.17,1.06 7.83,1.1 9.33,0.14 18.66,0.15 27.98,0.52 10.28,0.41 20.56,1.14 30.83,1.8 1.65,0.11 3.56,0.11 4.85,0.93 6.09,3.86 12.79,3.05 19.42,3.05 10.31,0 20.62,0.15 30.94,0.1 20.98,-0.1 41.96,-0.29 62.94,-0.46 1.33,-0.01 2.78,0.16 3.98,-0.29 13.76,-5.13 28.39,-2.88 42.55,-4.69 10.7,-1.37 21.94,-1.46 32.83,0.85 0.98,0.2 1.98,0.4 2.97,0.4 18.3,-0.06 36.47,3.4 54.84,1.84 9.36,-0.79 18.64,0.95 27.78,2.55 8.95,1.56 17.88,1.6 26.85,1.66 7.99,0.04 15.98,-0.13 23.96,-0.2 l 0,-165.21 0,-224.16 -3,0 z"
           id="path39"
           style="fill:url(#SVGID_2_);filter:url(#filter6881)"
           inkscape:connector-curvature="0" />
        <path
           d="m 2269.59,1112.44 c -37.85,-14.21 -79.64,-19.58 -113.48,-41.71 l -0.81,0.67 c -12.78,-1 -25.64,-0.66 -38.62,1.5 -17.27,2.87 -34.32,8.98 -51.78,7.74 -17.47,-1.25 -36.12,-13.15 -36.93,-30.64 -25.5,-2.89 -51.02,-5.53 -76.57,-7.93 -0.26,5.45 -1.15,10.8 -2.77,16.02 -1.65,5.33 -1.41,10.47 0,15.73 0.78,2.89 1.33,5.84 1.96,8.77 0.29,1.3 0.99,2.7 0.73,3.89 -3.19,15.12 2.59,30.27 -0.31,45.43 -0.59,3.08 0.21,6.79 1.41,9.79 5.16,12.92 8.7,26.62 17.58,37.84 0.77,0.97 1.42,1.97 1.97,3 2.86,-0.44 5.73,-0.84 8.61,-1.22 44.09,-5.77 88.82,-4.39 133.08,-8.7 43.01,-4.19 85.29,-13.72 127.45,-23.23 24.53,-5.53 49.07,-11.07 73.6,-16.6 -14.85,-7.25 -29.67,-14.55 -45.12,-20.35 z"
           id="path50"
           style="fill:url(#SVGID_3_);filter:url(#filter6885)"
           inkscape:connector-curvature="0" />
        <path
           d="m 1026.11,1005.49 c -77.02,-2.02 -154.04,-4.12 -231.06,-6.3 -42.58,-1.21 -85.44,-2.47 -127.09,-11.4 -41.01,-8.8 -80.78,-25.02 -122.68,-26.99 -22.85,-1.07 -45.66,2.14 -68.52,2.89 -46.71,1.52 -93.08,-7.25 -139.67,-10.93 C 222.34,943.69 105.25,966.16 2,1017.05 l 0,318.78 c 3.25,1.13 6.61,0.59 9.92,0.56 25.65,-0.24 51.2,2.36 76.85,2.7 11.9,0.16 23.99,0.5 35.85,1.82 16.63,1.86 33.36,0.4 49.87,2.11 14.92,1.55 29.89,1.52 44.8,2.9 10.26,0.94 20.69,0.18 30.94,1.2 22.9,2.28 45.94,0.68 68.82,3.18 6.6,0.72 13.33,0.17 19.98,0.46 21.95,0.99 43.93,1.62 65.84,2.9 15.58,0.91 31.32,0.27 46.79,3.04 1.62,0.29 3.32,0.32 4.98,0.28 25.34,-0.61 50.59,1.82 75.89,2.56 19.29,0.55 38.61,1.16 57.86,2.3 29.9,1.77 59.81,3 89.74,4.13 17.63,0.67 35.34,0.59 52.89,2.06 14.97,1.26 29.97,0.65 44.83,2.04 15.97,1.5 31.99,0.61 47.85,2.09 14.31,1.33 28.67,0.54 42.86,1.99 16.64,1.7 33.34,0.33 49.85,2.04 18.93,1.96 37.93,1.25 56.85,3.15 12.22,1.23 24.64,0.35 36.95,0.83 29.95,1.19 59.88,2.68 89.82,3.93 27.28,1.14 54.55,2.76 81.88,2.39 2.99,-0.04 6,-0.03 8.98,-0.29 2.99,-0.27 3.8,-2.28 1.91,-4.86 -5.52,-7.52 -11.15,-14.95 -16.72,-22.43 -2.59,-3.47 -5.09,-7.01 -7.69,-10.47 -10.65,-14.18 -16.12,-30.55 -19.73,-47.6 -2.41,-11.41 -0.39,-22.65 3.67,-33.35 6.32,-16.65 16.96,-30.14 31.94,-39.9 18.72,-12.2 39.03,-14.44 60.32,-8.52 25.09,6.98 49.01,16.82 71.55,29.92 8.34,4.85 16.76,9.55 25.23,14.17 3.45,1.89 4.33,1.61 4.9,-1.73 1.89,-11.21 6.13,-21.7 9.48,-32.47 1.77,-5.67 2.74,-11.66 3.46,-17.57 0.66,-5.37 2.29,-10.38 3.98,-15.43 0.95,-2.82 2.02,-5.73 2.22,-8.66 0.53,-7.56 3.33,-14.23 7.3,-20.46 2.54,-3.98 4.45,-8.07 5.48,-12.73 0.78,-3.53 2.31,-6.95 3.91,-10.22 1.93,-3.94 3.4,-7.88 3.44,-12.37 0.02,-2.28 0.38,-4.74 1.31,-6.79 4.58,-10.08 6.61,-20.89 9.45,-31.47 3.87,-14.44 8.36,-28.72 11.93,-43.23 2.21,-8.98 5.26,-17.83 5.58,-27.26 0.09,-2.52 0.58,-4.99 1.21,-7.45 -18.19,-0.46 -36.39,-0.91 -54.58,-1.36 -112.11,-2.77 -224.22,-5.53 -336.33,-8.47 z"
           id="path68"
           style="fill:url(#SVGID_5_);filter:url(#filter6877)"
           inkscape:connector-curvature="0" />
      </g>
    </g>
    <path
       d="m 1838.0644,349.38562 c -20.1669,-0.90668 -39.3091,8.07892 -11.0861,-8.81553 20.7099,-10.20222 72.8577,-74.78722 61.2857,-64.7324 -15.618,17.56898 -52.6274,60.88659 -65.1047,49.69816 0.9761,-16.3392 20.9709,-70.92644 4.3892,-29.13519 -2.685,42.96702 -35.8187,59.13336 -75.4595,65.93749 9.6427,-19.29847 53.1676,-53.0338 51.7072,-52.75546 -40.3021,9.61584 -58.1572,61.55022 -100.0537,58.43956 -26.4107,-6.92329 -64.8594,8.19649 -81.7155,2.1123 -7.1251,-25.09921 42.6711,-61.48496 2.2772,-31.02739 -19.4175,24.4605 -10.5808,55.13177 -47.5281,64.00928 -25.4272,22.08752 -37.5889,16.96063 -38.1828,-17.22331 5.053,-33.7933 40.2001,-68.3286 61.258,-98.96673 34.7291,-31.39736 89.159,-17.84082 124.1973,-50.10554 21.5579,-18.70036 50.7151,-24.07605 75.2382,-40.25276 11.3114,-9.15174 -77.3152,40.38022 -38.506,3.82387 14.2299,-33.52387 37.742,-48.54046 66.363,-68.68101 10.8497,-9.14493 34.2163,-27.89058 7.9306,-8.55269 -15.4126,12.05303 -60.8856,46.84375 -40.2143,5.45137 6.9644,-17.80604 15.1482,-99.729876 6.9057,-46.553672 -7.0286,28.515632 -21.7026,92.439632 -43.4176,91.197962 -7.0367,-16.76762 6.3069,-86.306334 -2.3516,-36.62309 -5.9598,33.92315 8.2723,65.08619 -31.9432,82.69824 -18.0734,12.80456 -55.9172,34.00442 -35.2353,-4.21969 -2.322,-15.82051 33.8994,-50.94849 7.4511,-23.48021 -6.526,41.69512 -31.7684,58.66975 -72.166,57.00633 -7.6604,-25.16184 31.9933,-65.44365 25.3914,-73.4016 -19.1326,24.63199 -37.2274,55.65388 -46.7628,80.56484 -18.5131,9.94745 -39.9685,38.39675 -41.8552,-1.4412 -2.2412,-39.14088 19.1458,-81.84885 -6.5472,-117.62799 -24.0581,-34.9614 16.0713,30.82775 0.5816,48.16721 -11.3299,37.57791 -34.6789,84.65967 -3.9745,119.48847 -15.0877,26.34177 -30.085,43.39307 -35.7842,4.7759 -20.602,-43.04417 -44.0192,-87.65127 -6.7906,-129.23885 4.4743,-21.03699 -38.3662,66.92121 -36.6201,15.2854 -19.8402,-27.44 22.9994,-82.60649 17.8789,-79.39019 -11.9419,17.3336 -30.8573,53.1221 -23.2756,9.88451 -14.4394,-35.557087 41.8518,-95.367663 40.8028,-87.551391 -18.7698,7.694782 -38.4247,39.106156 -24.4094,1.528089 4.0872,-15.465982 17.1638,-55.982539 3.4205,-17.865241 -12.1073,21.922952 -39.418,83.802833 -29.0413,77.754825 -8.1869,-11.569589 -24.1156,-19.659826 -22.2954,-32.860456 9.7563,28.865897 31.3445,53.869494 18.744,88.121274 -3.1077,17.56455 11.554,53.66018 -13.824,27.76835 -16.3075,-5.73014 -49.8406,-14.90317 -16.4874,-1.0638 28.995,12.134 53.3584,63.34984 43.6281,83.98768 -32.6416,12.44863 -12.2824,-42.81429 -49.0358,-46.25811 -18.9887,-13.00377 -37.4562,-42.91522 -15.3018,-7.02025 16.7985,10.45561 53.5498,60.78226 10.7059,46.1372 -40.4784,-19.90731 -67.7122,-74.76111 -45.693,-116.76417 7.73,-21.55578 8.7633,-45.408978 -2.5649,-11.66959 -15.0876,39.23024 -4.1313,-55.219698 -11.6419,-43.269984 13.0666,-18.11228 18.314,-49.99821 6.0093,-13.584503 -20.3764,46.980877 -24.5253,-35.942374 -58.521,-37.34575 -32.3044,-15.780677 43.386,25.192518 35.5136,54.386066 6.3599,22.662681 7.6032,47.467421 -10.7477,15.547781 -10.2687,-13.454304 -30.0491,-23.760357 -6.7292,-5.03278 24.6545,22.61597 29.7796,74.57271 20.7026,93.0582 -17.0625,4.07183 -49.9183,-35.72651 -27.7284,-5.28439 31.4975,12.22088 42.7942,38.77899 57.9732,66.37627 -22.8815,-7.09039 -50.7932,-5.77643 -12.5175,4.78514 39.6519,16.08882 79.3486,49.35408 127.0562,36.45683 12.9349,24.95366 15.5742,53.27429 -18.8935,35.39236 -33.8347,-11.81793 -61.9756,-7.44535 -86.7805,-31.18815 -20.809,-6.65669 -36.1325,-23.24732 -9.8754,0.60492 27.2071,5.39858 35.1255,34.54587 -0.785,21.64752 -29.1915,-10.18256 -47.0799,-45.06515 -80.9303,-43.48253 43.2586,13.74806 77.5327,76.51586 122.7816,62.28467 -20.0766,19.94742 -71.2221,0.21687 -72.921,5.10148 42.7306,26.64699 88.2937,-19.96386 127.4187,13.19323 30.0819,-2.02553 55.3907,23.87482 39.5576,44.20974 -27.311,-6.47641 -43.2429,-43.781 -77.9427,-37.92426 23.8486,-4.9535 81.377,45.23174 30.1646,29.27656 -17.8221,-2.49173 -55.1717,-6.39519 -66.51,-2.67437 17.0366,7.15829 88.9272,16.57241 37.305,26.84634 -10.9467,4.70962 39.9794,-14.27743 51.8738,4.07104 44.5927,2.63115 39.8645,63.45853 29.2959,84.21643 -21.0116,-4.06352 -37.3794,-9.46205 -37.1756,-34.12859 -4.3284,-19.52729 -44.37,-39.41018 -50.3932,-34.0331 32.9723,-0.0538 65.0547,74.91826 14.356,46.40056 -35.8093,-9.78726 -91.4571,-15.77787 -72.6001,-67.77049 0.085,-17.11535 -13.5322,41.71907 -14.6453,41.03772 -25.4764,-11.26715 -70.1375,-31.96762 -61.2417,-63.41858 16.654,-21.94272 -19.629,-83.85091 -21.8182,-71.22614 25.0643,15.03016 14.1907,97.23281 -3.2112,43.89716 -24.4019,-29.52567 -21.8972,-66.99244 -36.3156,-97.93502 1.5417,-8.52119 18.0565,69.50172 -6.8727,31.05594 -24.4622,-15.42312 -22.5431,-77.80583 -48.9614,-69.5261 31.3528,1.76406 37.1001,73.27324 1.6583,37.42413 -29.2036,-18.095 -118.8908,-2.78328 -105.9197,-8.87118 29.2031,-7.88819 83.1477,-0.2729 93.6267,13.59438 -17.6915,6.08304 -69.0376,6.08119 -66.4487,6.2856 32.5316,9.96831 70.3562,-13.22277 97.7893,8.15925 19.2161,7.95103 73.6211,92.38578 47.8114,67.62744 -15.0602,-10.59915 -63.6612,-27.77316 -61.8364,-25.05709 28.8669,12.90285 68.7171,22.90932 78.1114,56.82828 3.4799,29.77014 48.5119,62.10669 45.1814,76.74431 -19.0973,10.37608 -78.7205,-16.79537 -34.2796,5.1948 34.9254,11.86955 67.9164,-3.68711 100.4906,20.15108 -15.4797,14.08523 -90.8916,40.97335 -36.9902,25.73024 36.845,-17.43746 71.346,-22.39693 107.9368,-0.0704 2.1537,21.48786 -56.1085,16.31457 -71.2965,38.77195 30.5877,-15.07672 71.0812,-14.68651 100.119,-28.3525 27.4461,7.60061 56.5708,15.00327 39.4943,48.92884 -9.6289,66.89647 -41.0803,126.9855 -64.9278,189.25722 -3.217,24.24252 -26.7266,90.014 13.4672,84.16175 15.3579,0 30.7158,0 46.0737,0 -9.9893,-56.11967 14.7363,-108.82651 31.5562,-160.82594 19.7892,-37.68656 0.6635,-96.50407 41.7035,-119.48208 40.1694,-35.26775 87.7556,22.14042 124.096,-19.51033 4.7764,-1.27126 -44.2328,27.43827 -60.8537,4.05244 3.2043,-10.23519 46.1633,-27.69424 65.2128,-39.63684 20.2484,-3.09654 70.3475,-32.12726 25.8752,-11.89834 -49.341,18.35511 17.4184,-27.04372 22.9633,-48.38335 21.3231,-33.52367 -23.4618,29.92988 -37.9093,34.69462 -18.962,14.63255 -55.2415,40.94958 -33.5888,0.70661 7.7321,-38.00649 -8.6446,44.14659 -35.1625,36.45741 -27.5807,12.58319 -69.1243,13.49208 -29.3516,-17.62262 18.5101,-12.137 39.7142,-53.29918 13.2161,-15.6298 -28.6384,12.49742 -47.1819,63.69508 -73.3094,49.23132 8.8894,-32.4183 -20.3852,-80.11085 16.7954,-96.93317 25.689,-34.61315 59.7721,-6.04762 92.6393,-6.80047 -22.4429,-4.91535 -73.102,-23.93775 -28.6042,-37.59063 37.8549,-27.57049 71.8468,11.49968 112.0766,11.35017 21.2005,4.35651 41.1657,8.37079 9.6951,-1.88305 -18.2673,-7.81146 -80.0789,-23.41579 -31.6861,-24.7493 40.6543,-6.2745 75.1522,-31.36804 116.4419,-31.06477 16.9461,5.45005 49.8722,-8.0925 16.1595,-0.19098 -6.5047,-0.49205 -12.7907,-2.32061 -19.2043,-3.38102 z"
       id="path11097"
       inkscape:connector-curvature="0" />
    <path
       d="m -1676.8368,223.66687 c -0.1108,-0.2094 -1.3536,2.9307 -4.5391,11.76562 -8.6282,15.6233 -27.6609,58.59599 -22.3125,57.96094 -1.6358,0.62364 -3.168,1.10806 -4.5801,1.43555 5.001,12.04355 8.1522,24.49206 2.7188,39.26172 -2.305,13.02769 8.569,39.79977 -10.2539,20.5957 -12.0954,-4.25007 -36.9667,-11.05378 -12.2285,-0.78906 21.5057,8.99983 39.5763,46.98579 32.3593,62.29296 -24.2104,9.23321 -9.109,-31.7543 -36.3691,-34.30859 -14.084,-9.64495 -27.7816,-31.83047 -11.3496,-5.20703 12.4595,7.75497 39.7169,45.08105 7.9394,34.21875 -5.75,-2.82785 -11.1348,-6.61151 -15.9765,-11.0918 l 0,24.31641 c 21.3169,10.95544 43.508,21.52497 68.7207,14.70898 9.5939,18.50823 11.5512,39.5131 -14.0137,26.25 -20.8075,-7.26775 -38.7092,-6.291 -54.707,-15.77929 l 0,5.05468 c 0.4275,1.33759 0.4487,2.58781 0,3.62696 l 0,15.76172 c 4.3632,0.47446 8.8418,0.11195 13.4765,-1.34571 -3.4836,3.46118 -8.2352,5.29796 -13.4765,6.14844 l 0,2.17383 c 18.6769,-3.39809 37.0895,-8.99889 53.8984,5.24609 22.3118,-1.50234 41.0834,17.70853 29.3399,32.79102 -19.8134,-4.69844 -31.5604,-31.25345 -56.1485,-28.34961 18.5213,-1.25647 57.553,33.41365 20.711,21.93555 -12.5073,-1.74867 -37.9715,-4.43257 -47.8008,-2.37891 l 0,0.97656 c 14.8403,5.23301 63.0483,11.98427 26.1386,19.33008 -8.1192,3.49315 29.6526,-10.5896 38.4747,3.01953 33.0746,1.95153 29.5692,47.06863 21.7304,62.46484 -15.5844,-3.01392 -27.7253,-7.01918 -27.5742,-25.31445 -3.2104,-14.48347 -32.9096,-29.23039 -37.377,-25.24219 24.4557,-0.0399 48.2519,55.56771 10.6485,34.41602 -9.8474,-2.69146 -21.7146,-5.00102 -32.041,-8.80078 l 0,20.01367 c 10.9323,0.69994 21.8968,4.07743 33.1269,10.92969 1.0499,10.47462 -17.256,12.40933 -33.1269,17.23242 l 0,4.54102 c 18.5942,-4.79211 38.8044,-6.65536 54.5058,-14.04493 20.3569,5.6374 41.9587,11.12829 29.293,36.29102 -7.1418,49.61738 -30.4704,94.18587 -48.1582,140.37305 -2.3861,17.98077 -19.8236,66.76444 9.9883,62.42384 l 34.1738,0 c -7.4091,-41.6242 10.9289,-80.71699 23.4043,-119.28517 14.6777,-27.95227 0.4921,-71.57822 30.9316,-88.6211 29.556,-25.94937 64.5247,15.73313 91.3946,-13.75781 -5.2715,3.42932 -33.8296,17.28712 -44.4864,2.29297 2.3766,-7.59148 34.2401,-20.54057 48.3692,-29.39844 15.0183,-2.29672 52.1767,-23.83004 19.1914,-8.82617 -36.5964,13.61406 12.9185,-20.05707 17.0312,-35.88476 15.8154,-24.86464 -17.4013,22.19839 -28.1171,25.73242 -14.0642,10.85302 -40.9721,30.3718 -24.9122,0.52344 5.7349,-28.18957 -6.4116,32.7441 -26.08,27.04101 -20.4567,9.333 -51.2711,10.00759 -21.7715,-13.07031 13.729,-9.00206 29.4565,-39.53328 9.8027,-11.59375 -21.2412,9.26938 -34.9942,47.24345 -54.373,36.51562 6.5933,-24.04478 -15.12,-59.4193 12.457,-71.89648 19.0536,-25.67271 44.3332,-4.48458 68.7109,-5.04297 -16.646,-3.64573 -54.221,-17.75446 -21.2168,-27.88086 28.0771,-20.44914 53.2903,8.52886 83.1289,8.41797 15.7245,3.23124 30.5314,6.20884 7.1895,-1.39649 -13.5489,-5.79378 -59.3951,-17.36835 -23.502,-18.35742 30.1535,-4.65382 55.7406,-23.26595 86.3653,-23.04101 12.569,4.04232 36.9911,-6.00122 11.9863,-0.14063 -4.8246,-0.36496 -9.4871,-1.72129 -14.2441,-2.50781 -14.9579,-0.67249 -29.1558,5.99162 -8.2227,-6.53906 15.3606,-7.56702 54.04,-55.46942 45.457,-48.01172 -11.5839,13.03098 -39.0345,45.15983 -48.289,36.86133 0.724,-12.11885 15.5545,-52.60611 3.2558,-21.60938 -1.9915,31.86881 -26.567,43.8596 -55.9687,48.90625 7.152,-14.31375 39.4348,-39.33535 38.3516,-39.1289 -29.8922,7.1321 -43.1362,45.65094 -74.211,43.34375 -19.5889,-5.13503 -48.1052,6.07907 -60.6074,1.5664 -5.2847,-18.61618 31.6478,-45.60222 1.6875,-23.01172 -14.402,18.14245 -7.848,40.89012 -35.252,47.47461 -18.8594,16.3824 -27.8798,12.58092 -28.3203,-12.77343 3.7478,-25.06462 29.8169,-50.67988 45.4356,-73.4043 25.7587,-23.28755 66.1292,-13.23319 92.1172,-37.16406 15.9896,-13.87013 37.6158,-17.85714 55.8047,-29.85547 8.3897,-6.78788 -57.3435,29.94992 -28.5586,2.83593 10.5544,-24.86479 27.9924,-36.00307 49.2207,-50.9414 8.0473,-6.78283 25.379,-20.68479 5.8828,-6.3418 -11.4316,8.93978 -45.1602,34.74386 -29.8282,4.04297 5.1655,-13.20681 11.2366,-73.9703 5.1231,-34.5293 -5.2132,21.15016 -16.097,68.56353 -32.2031,67.64258 -5.2192,-12.43661 4.6778,-64.01432 -1.7442,-27.16406 -4.4204,25.16093 6.1347,48.27496 -23.6933,61.33789 -12.2446,8.67496 -36.7039,22.52379 -29.1602,3.25391 -9.1186,13.6551 -24.3942,19.32976 -44.9726,18.48242 -5.6817,-18.66263 23.7287,-48.54092 18.832,-54.44336 -14.1907,18.26964 -27.6112,41.2793 -34.6836,59.75586 -13.7313,7.37806 -29.6436,28.47961 -31.043,-1.06836 -1.6623,-29.03094 14.1992,-60.70857 -4.8574,-87.2461 -17.844,-25.93101 11.9204,22.86582 0.4316,35.72657 -8.4034,27.87168 -25.7208,62.79234 -2.9472,88.625 -11.1906,19.53779 -22.3139,32.18548 -26.541,3.54297 -15.2806,-31.92603 -32.6497,-65.01176 -5.0371,-95.85743 3.3186,-15.60322 -28.4573,49.63637 -27.1622,11.33789 -14.7155,-20.35236 17.0597,-61.2703 13.2618,-58.88476 -8.8574,12.8564 -22.8871,39.40152 -17.2637,7.33203 -8.5837,-21.13722 16.516,-53.80602 26.4258,-62.96875 -12.5542,7.59224 -23.7068,24.4726 -14.2676,-0.83594 2.0842,-7.88643 7.3198,-24.55494 7.0762,-25.01562 z m 7.1914,25.85156 c 1.2715,-0.76895 2.5575,-1.44388 3.8379,-1.96875 0.1544,-1.15091 -1.3833,-0.30083 -3.8379,1.96875 z m 135.5566,135.66602 c 3.6682,-5.49307 6.3355,-12.28356 7.9551,-20.45508 -2.9533,4.80157 -5.495,10.20518 -4.9277,14.07031 -1.3281,2.45452 -2.3124,4.55833 -3.0274,6.38477 z m 7.9551,-20.45508 c 6.0126,-9.77549 13.7528,-17.00627 0.5976,-3.34375 -0.1787,1.14213 -0.3811,2.25141 -0.5976,3.34375 z m 0.2383,262.17773 c 0.8266,-0.53775 1.1286,-0.8407 0.6484,-0.71289 -0.2152,0.24666 -0.4322,0.47553 -0.6484,0.71289 z m -198.4434,-136.50195 c -0.5743,0.039 -1.1301,0.1102 -1.6621,0.2207 0.5634,-0.0951 1.1119,-0.15572 1.6621,-0.2207 z m 16.0703,-195.57617 c -3.601,-8.67206 -8.1543,-17.13688 -11.1836,-26.09961 -6.7208,15.16699 -4.8842,29.82608 11.1836,26.09961 z"
       id="path14159"
       inkscape:connector-curvature="0" />
    <path
       inkscape:connector-curvature="0"
       id="path14164"
       d="m -355.63579,267.28978 c -23.48173,-1.05571 -45.77034,9.40686 -12.90832,-10.26454 24.11399,-11.87916 84.83334,-87.08001 71.35924,-75.37248 -18.18513,20.4568 -61.27777,70.89454 -75.80597,57.86706 1.13654,-19.02488 24.41789,-82.58463 5.11065,-33.92415 -3.12633,50.02952 -41.70622,68.85313 -87.86279,76.77565 11.22767,-22.47056 61.90677,-61.75097 60.20632,-61.42688 -46.92656,11.19639 -67.71651,71.66724 -116.49955,68.04528 -30.75183,-8.06127 -75.52035,9.54375 -95.14709,2.4595 -8.29626,-29.22477 49.68496,-71.59126 2.6515,-36.12737 -22.60916,28.48108 -12.31997,64.19379 -55.3403,74.5305 -29.60668,25.71805 -43.7674,19.74845 -44.45892,-20.05431 5.88357,-39.34791 46.8078,-79.55979 71.32699,-115.23391 40.43753,-36.55815 103.81409,-20.77332 144.61164,-58.3414 25.10138,-21.77414 59.05115,-28.03344 87.60512,-46.869117 13.17066,-10.656014 -90.02352,47.017527 -44.83524,4.4524 16.56887,-39.034196 43.94566,-56.519066 77.2711,-79.970123 12.63307,-10.6480841 39.84044,-32.474961 9.23416,-9.9584975 -17.94598,14.0341895 -70.89338,54.5434675 -46.82434,6.3474125 8.10914,-20.732822 17.63812,-116.122495 8.0408,-54.205709 -8.1839,33.202753 -25.26987,107.633955 -50.55417,106.188191 -8.19332,-19.523717 7.34357,-100.492525 -2.73813,-42.642835 -6.93941,39.499106 9.63202,75.784421 -37.19371,96.291368 -21.04413,14.90925 -65.10832,39.59373 -41.02693,-4.91328 -2.70367,-18.420932 39.47145,-59.322906 8.67584,-27.339659 -7.59868,48.548559 -36.99018,68.313309 -84.02795,66.376469 -8.91954,-29.29769 37.25205,-76.200633 29.56499,-85.466633 -22.27743,28.680756 -43.34647,64.801723 -54.44921,93.807303 -21.5561,11.58251 -46.53813,44.70803 -48.73495,-1.67809 -2.60958,-45.57448 22.2928,-95.302366 -7.62336,-136.962532 -28.01254,-40.708013 18.71294,35.894915 0.6772,56.084466 -13.1922,43.754596 -40.37908,98.575196 -4.62779,139.128816 -17.56767,30.67157 -35.03008,50.5256 -41.66606,5.56092 -23.98836,-50.11935 -51.25465,-102.05853 -7.90677,-150.481873 5.20974,-24.494845 -44.67246,77.921063 -42.63936,17.797865 -23.10133,-31.950319 26.77982,-96.1845374 20.81766,-92.4395735 -13.90479,20.1827275 -35.92932,61.8537915 -27.10141,11.5092291 -16.81281,-41.4016136 48.73099,-111.0432676 47.50956,-101.9422326 -21.85499,8.959575 -44.74057,45.534043 -28.42158,1.779261 4.75902,-18.008126 19.98502,-65.184406 3.98273,-20.801756 -14.09738,25.526434 -45.89714,97.577525 -33.81482,90.535405 -9.53259,-13.471285 -28.07949,-22.891316 -25.9601,-38.261737 11.35994,33.610591 36.4966,62.72403483 21.82495,102.605788 -3.61851,20.451639 13.45314,62.480314 -16.09625,32.332639 -18.98797,-6.672004 -58.03291,-17.352807 -19.19744,-1.238657 33.76092,14.128469 62.12893,73.762672 50.79926,97.792752 -38.00691,14.49482 -14.30126,-49.85168 -57.09582,-53.86156 -22.10988,-15.14121 -43.61289,-49.969208 -17.81696,-8.17417 19.55967,12.1742 62.35179,70.77305 12.46563,53.72078 -47.13185,-23.17948 -78.84207,-87.049612 -53.20357,-135.956725 9.00058,-25.09890802 10.20372,-52.872862 -2.98649,-13.587723 -17.56756,45.678524 -4.81037,-64.296172 -13.55549,-50.382281 15.21436,-21.089399 21.32428,-58.216427 6.99705,-15.817391 -23.72567,54.70313476 -28.55653,-41.85023 -68.14011,-43.484279 -37.61425,-18.374551 50.51737,29.333418 41.35098,63.325516 7.40528,26.387751 8.85294,55.269652 -12.5143,18.103373 -11.95657,-15.665791 -34.98828,-27.665852 -7.83528,-5.860019 28.70697,26.3333622 34.67448,86.830243 24.10549,108.354197 -19.86707,4.741118 -58.12338,-41.598884 -32.28612,-6.152986 36.67475,14.229629 49.82829,45.153098 67.50227,77.286548 -26.64254,-8.25583 -59.14209,-6.7259 -14.57501,5.57168 46.16949,18.73334 92.39115,57.46642 147.94046,42.44925 15.06101,29.05529 18.13413,62.03099 -21.99903,41.20981 -39.39612,-13.76045 -72.16254,-8.66915 -101.04463,-36.31456 -24.22938,-7.75085 -42.07161,-27.06848 -11.49862,0.70435 31.67913,6.28595 40.89908,40.22419 -0.91403,25.20573 -33.98972,-11.85627 -54.81844,-52.47252 -94.23284,-50.62976 50.36903,16.00783 90.27677,89.09279 142.96324,72.52241 -23.37659,23.22619 -82.92889,0.25252 -84.90704,5.94002 49.75424,31.02696 102.80656,-23.24533 148.36254,15.3618 35.02647,-2.35847 64.49528,27.79913 46.05969,51.4765 -31.80011,-7.54093 -50.35074,-50.97729 -90.75415,-44.15788 27.76859,-5.7677 94.75295,52.6665 35.12276,34.08876 -20.75153,-2.9013 -64.24029,-7.44637 -77.44227,-3.11396 19.83691,8.3349 103.54419,19.29642 43.43683,31.25908 -12.74601,5.48374 46.55083,-16.62421 60.40031,4.7402 51.92241,3.06363 46.41704,73.88922 34.11128,98.0591 -24.46528,-4.73144 -43.52346,-11.01733 -43.28617,-39.73831 -5.03986,-22.737 -51.6631,-45.88804 -58.67634,-39.62713 38.39197,-0.0626 75.74776,87.23259 16.7157,54.02743 -41.69528,-11.39599 -106.48992,-18.37128 -84.53339,-78.90994 0.099,-19.9286 -15.75649,48.57644 -17.05255,47.7831 -29.66397,-13.11913 -81.66603,-37.22215 -71.30802,-73.84271 19.39143,-25.54945 -22.85541,-97.6335 -25.40441,-82.93359 29.18408,17.50067 16.5232,113.21499 -3.7391,51.11254 -28.4128,-34.37881 -25.4964,-78.004 -42.2848,-114.03262 1.7951,-9.92182 21.0245,80.92574 -8.0024,36.16061 -28.483,-17.95822 -26.2485,-90.59479 -57.0092,-80.95412 36.5063,2.05402 43.1983,85.31718 1.9309,43.57555 -34.0038,-21.06928 -138.4329,-3.24077 -123.3297,-10.32934 34.0032,-9.18478 96.8147,-0.31776 109.0161,15.82889 -20.5994,7.08291 -80.3853,7.08076 -77.3709,7.31876 37.8789,11.60681 81.9207,-15.3962 113.863,9.50039 22.3746,9.25794 85.7222,107.57125 55.6702,78.74338 -17.5357,-12.34133 -74.1253,-32.33824 -72.0005,-29.17573 33.6117,15.02369 80.0121,26.67493 90.9506,66.16916 4.0519,34.66346 56.4858,72.31518 52.60787,89.35879 -22.23637,12.0816 -91.65987,-19.55603 -39.91417,6.04867 40.66612,13.82055 79.07985,-4.29316 117.00828,23.46331 -18.0241,16.40043 -105.83148,47.70815 -43.07028,29.95953 42.90122,-20.30366 83.07315,-26.07832 125.67839,-0.082 2.50771,25.01982 -65.33107,18.9962 -83.01552,45.1449 35.61541,-17.55488 82.76483,-17.10053 116.57558,-33.0128 31.95742,8.84992 65.86936,17.46936 45.98599,56.97128 -11.21161,77.89226 -47.83268,147.85814 -75.6,220.36547 -3.74578,28.22727 -31.11966,104.80962 15.68081,97.99544 17.88228,0 35.76456,0 53.64684,0 -11.63124,-65.34408 17.15851,-126.71435 36.7431,-187.26094 23.04196,-43.88111 0.77256,-112.36646 48.55832,-139.12137 46.77205,-41.06472 102.18,25.77964 144.49368,-22.71725 5.5615,-1.48022 -51.50335,31.9483 -70.85623,4.71854 3.73099,-11.91755 53.75117,-32.24635 75.93184,-46.15196 23.57663,-3.60552 81.91053,-37.40802 30.12831,-13.85407 -57.45119,21.37214 20.28147,-31.4889 26.73778,-56.33613 24.82799,-39.03397 -27.31822,34.84946 -44.14046,40.39738 -22.07878,17.03771 -64.32155,47.68047 -39.10979,0.82276 9.00302,-44.25363 -10.06552,51.40297 -40.94217,42.44992 -32.11415,14.65149 -80.48628,15.70977 -34.17613,-20.51926 21.55261,-14.13196 46.24203,-62.05997 15.38843,-18.19887 -33.3457,14.55162 -54.9372,74.16466 -85.35928,57.32348 10.35055,-37.7469 -23.73592,-93.27868 19.55606,-112.86609 29.91151,-40.30252 69.59686,-7.04167 107.86645,-7.91827 -26.13185,-5.72329 -85.1178,-27.8724 -33.30588,-43.76941 44.07712,-32.10226 83.65627,13.38989 130.49865,13.2158 24.68523,5.07259 47.93212,9.7467 11.28869,-2.19257 -21.2699,-9.09543 -93.24149,-27.26464 -36.89435,-28.81734 47.33665,-7.30584 87.50498,-36.52402 135.58148,-36.1709 19.73153,6.34588 58.0697,-9.42266 18.81564,-0.22237 -7.57388,-0.57293 -14.89311,-2.70205 -22.36092,-3.93676 z" />
  </g>
</svg>
